<svg width="168" height="30" viewBox="0 0 168 30" fill="none" xmlns="http://www.w3.org/2000/svg">
<g opacity="0.75">
<g clip-path="url(#clip0_1_3481)">
<path d="M73.5884 21.0175L73.5877 21.0221C73.2526 23.0961 73.9087 24.6245 75.0907 25.7883C76.2959 26.9751 78.0664 27.7969 79.9545 28.358C83.7257 29.4788 87.7532 29.4997 87.9934 29.4997H87.9935H87.9935H87.9936H87.9936H87.9937H87.9937H87.9938H87.9938H87.9939H87.9939H87.994H87.994H87.9941H87.9941H87.9942H87.9942H87.9943H87.9943H87.9944H87.9944H87.9945H87.9945H87.9946H87.9946H87.9947H87.9947H87.9947H87.9948H87.9948H87.9949H87.9949H87.995H87.995H87.9951H87.9951H87.9952H87.9952H87.9953H87.9953H87.9954H87.9954H87.9954H87.9955H87.9955H87.9956H87.9956H87.9957H87.9957H87.9958H87.9958H87.9958H87.9959H87.9959H87.996H87.996H87.9961H87.9961H87.9962H87.9962H87.9962H87.9963H87.9963H87.9964H87.9964H87.9965H87.9965H87.9965H87.9966H87.9966H87.9967H87.9967H87.9968H87.9968H87.9968H87.9969H87.9969H87.997H87.997H87.9971H87.9971H87.9971H87.9972H87.9972H87.9973H87.9973H87.9973H87.9974H87.9974H87.9975H87.9975H87.9975H87.9976H87.9976H87.9977H87.9977H87.9977H87.9978H87.9978H87.9979H87.9979H87.9979H87.998H87.998H87.9981H87.9981H87.9981H87.9982H87.9982H87.9983H87.9983H87.9983H87.9984H87.9984H87.9984H87.9985H87.9985H87.9986H87.9986H87.9986H87.9987H87.9987H87.9987H87.9988H87.9988H87.9989H87.9989H87.9989H87.999H87.999H87.999H87.9991H87.9991H87.9991H87.9992H87.9992H87.9993H87.9993H87.9993H87.9994H87.9994H87.9994H87.9995H87.9995H87.9995H87.9996H87.9996H87.9996H87.9997H87.9997H87.9997H87.9998H87.9998H87.9998H87.9999H87.9999H87.9999H88H88H88.0001H88.0001H88.0001H88.0001H88.0002H88.0002H88.0002H88.0003H88.0003H88.0003H88.0004H88.0004H88.0004H88.0005H88.0005H88.0005H88.0006H88.0006H88.0006H88.0007H88.0007H88.0007H88.0008H88.0008H88.0008H88.0009H88.0009H88.0009H88.0009H88.001H88.001H88.001H88.0011H88.0011H88.0011H88.0012H88.0012H88.0012H88.0012H88.0013H88.0013H88.0013H88.0014H88.0014H88.0014H88.0014H88.0015H88.0015H88.0015H88.0016H88.0016H88.0016H88.0016H88.0017H88.0017H88.0017H88.0018H88.0018H88.0018H88.0018H88.0019H88.0019H88.0019H88.0019H88.002H88.002H88.002H88.0021H88.0021H88.0021H88.0021H88.0022H88.0022H88.0022H88.0022H88.0023H88.0023H88.0023H88.0023H88.0024H88.0024H88.0024H88.0024H88.0025H88.0025H88.0025H88.0025H88.0026H88.0026H88.0026H88.0026H88.0027H88.0027H88.0027H88.0027H88.0028H88.0028H88.0028H88.0028H88.0029H88.0029H88.0029H88.0029H88.0029H88.003H88.003H88.003H88.003H88.0031H88.0031H88.0031H88.0031H88.0032H88.0032H88.0032H88.0032H88.0032H88.0033H88.0033H88.0033H88.0033H88.0033H88.0034H88.0034H88.0034H88.0034H88.0035H88.0035H88.0035H88.0035H88.0035H88.0036H88.0036H88.0036H88.0036H88.0036H88.0037H88.0037H88.0037H88.0037H88.0037H88.0038H88.0038H88.0038H88.0038H88.0038H88.0038H88.0039H88.0039H88.0039H88.0039H88.0039H88.004H88.004H88.004H88.004H88.004H88.0041H88.0041H88.0041H88.0041H88.0041H88.0041H88.0042H88.0042H88.0042H88.0042H88.0042H88.0042H88.0043H88.0043H88.0043H88.0043H88.0043H88.0043H88.0044H88.0044H88.0044H88.0044H88.0044H88.0044H88.0045H88.0045H88.0045H88.0045H88.0045H88.0045H88.0045H88.0046H88.0046H88.0046H88.0046H88.0046H88.0046H88.0046H88.0047H88.0047H88.0047H88.0047H88.0048H88.0048H88.0048H88.0048H88.0049H88.0049H88.0049H88.0049H88.005H88.005H88.005H88.005H88.0051H88.0051H88.0051H88.0051H88.0051H88.0052H88.0052H88.0052H88.0052H88.0052H88.0053H88.0053H88.0053H88.0053H88.0053H88.0054H88.0054H88.0054H88.0054H88.0054H88.0054H88.0055H88.0055H88.0055H88.0055H88.0055H88.0055H88.0056H88.0056H88.0056H88.0056H88.0056H88.0056H88.0057H88.0057H88.0057H88.0057H88.0057H88.0057H88.0058H88.0058C88.252 29.4997 92.437 29.4778 96.2706 28.2897C98.1902 27.6947 99.9624 26.8248 101.119 25.5716C102.25 24.3466 102.824 22.7251 102.311 20.5045C102.303 20.4707 102.296 20.4399 102.289 20.4106C102.278 20.3615 102.268 20.3163 102.256 20.2676L102.252 20.2549L102.253 20.2549C102.245 20.2203 102.238 20.191 102.23 20.1569C102.224 20.1348 102.218 20.1106 102.212 20.0815C102.182 19.9579 102.152 19.834 102.122 19.7084L102.121 19.7068L102.113 19.6737C102.057 19.4462 102.001 19.2198 101.943 18.9948L101.942 18.9934C101.386 16.8133 100.709 14.6711 99.8336 12.6183L99.8335 12.618C99.0689 10.8227 98.1026 9.20295 96.9713 7.59623C95.3035 5.22882 93.3894 2.72742 90.9881 1.28446L90.9879 1.2843C90.0852 0.741092 89.0446 0.420218 88.0482 0.516625L88.0001 0.521284L87.9519 0.516625C86.9554 0.420211 85.914 0.741138 85.0113 1.2843L85.0111 1.28446C82.6098 2.72742 80.6957 5.22882 79.0279 7.59623C77.8967 9.20286 76.9303 10.8226 76.1648 12.618C75.4575 14.2796 74.8787 15.9997 74.3888 17.7505L74.3875 17.7552L74.3875 17.7552C74.3802 17.7804 74.3733 17.8065 74.3645 17.8402L74.3619 17.8501L74.3618 17.8501C74.2951 18.0855 74.231 18.3224 74.1685 18.5603C74.1663 18.5694 74.1641 18.5773 74.1623 18.5836L74.1615 18.5861C74.1285 18.7106 74.0962 18.8365 74.0634 18.9647L73.5884 21.0175ZM73.5884 21.0175C73.5971 20.9602 73.6067 20.9025 73.6173 20.8433M73.5884 21.0175L73.6173 20.8433M73.6173 20.8433C73.6374 20.7335 73.6613 20.6205 73.6883 20.5038C73.742 20.2731 73.7967 20.0431 73.8524 19.8118C73.8884 19.6638 73.924 19.5179 73.9604 19.3733L73.9606 19.3726C73.9948 19.2361 74.0286 19.1009 74.0633 18.9649L73.6173 20.8433ZM102.112 19.6661L102.112 19.6664L102.112 19.6661Z" fill="url(#paint0_radial_1_3481)" stroke="white"/>
<circle cx="92.0001" cy="8.00006" r="1.5" fill="#D7D9FF" stroke="white"/>
<path d="M73.5881 21.0175L73.5874 21.0222C73.2524 23.0961 73.9085 24.6246 75.0904 25.7884C76.2957 26.9752 78.0662 27.7969 79.9542 28.3581C83.7255 29.4788 87.7529 29.4998 87.9932 29.4998H87.9932H87.9933H87.9933H87.9934H87.9934H87.9935H87.9935H87.9936H87.9936H87.9937H87.9937H87.9938H87.9938H87.9939H87.9939H87.994H87.994H87.9941H87.9941H87.9942H87.9942H87.9943H87.9943H87.9944H87.9944H87.9945H87.9945H87.9946H87.9946H87.9946H87.9947H87.9947H87.9948H87.9948H87.9949H87.9949H87.995H87.995H87.9951H87.9951H87.9952H87.9952H87.9952H87.9953H87.9953H87.9954H87.9954H87.9955H87.9955H87.9956H87.9956H87.9957H87.9957H87.9957H87.9958H87.9958H87.9959H87.9959H87.996H87.996H87.996H87.9961H87.9961H87.9962H87.9962H87.9963H87.9963H87.9963H87.9964H87.9964H87.9965H87.9965H87.9966H87.9966H87.9966H87.9967H87.9967H87.9968H87.9968H87.9969H87.9969H87.9969H87.997H87.997H87.9971H87.9971H87.9971H87.9972H87.9972H87.9973H87.9973H87.9973H87.9974H87.9974H87.9975H87.9975H87.9975H87.9976H87.9976H87.9977H87.9977H87.9977H87.9978H87.9978H87.9979H87.9979H87.9979H87.998H87.998H87.9981H87.9981H87.9981H87.9982H87.9982H87.9982H87.9983H87.9983H87.9984H87.9984H87.9984H87.9985H87.9985H87.9985H87.9986H87.9986H87.9987H87.9987H87.9987H87.9988H87.9988H87.9988H87.9989H87.9989H87.9989H87.999H87.999H87.999H87.9991H87.9991H87.9992H87.9992H87.9992H87.9993H87.9993H87.9993H87.9994H87.9994H87.9994H87.9995H87.9995H87.9995H87.9996H87.9996H87.9996H87.9997H87.9997H87.9997H87.9998H87.9998H87.9998H87.9999H87.9999H87.9999H88H88H88H88.0001H88.0001H88.0001H88.0002H88.0002H88.0002H88.0003H88.0003H88.0003H88.0004H88.0004H88.0004H88.0005H88.0005H88.0005H88.0005H88.0006H88.0006H88.0006H88.0007H88.0007H88.0007H88.0008H88.0008H88.0008H88.0009H88.0009H88.0009H88.0009H88.001H88.001H88.001H88.0011H88.0011H88.0011H88.0011H88.0012H88.0012H88.0012H88.0013H88.0013H88.0013H88.0013H88.0014H88.0014H88.0014H88.0015H88.0015H88.0015H88.0015H88.0016H88.0016H88.0016H88.0017H88.0017H88.0017H88.0017H88.0018H88.0018H88.0018H88.0018H88.0019H88.0019H88.0019H88.0019H88.002H88.002H88.002H88.002H88.0021H88.0021H88.0021H88.0021H88.0022H88.0022H88.0022H88.0022H88.0023H88.0023H88.0023H88.0023H88.0024H88.0024H88.0024H88.0024H88.0025H88.0025H88.0025H88.0025H88.0026H88.0026H88.0026H88.0026H88.0027H88.0027H88.0027H88.0027H88.0028H88.0028H88.0028H88.0028H88.0028H88.0029H88.0029H88.0029H88.0029H88.003H88.003H88.003H88.003H88.003H88.0031H88.0031H88.0031H88.0031H88.0031H88.0032H88.0032H88.0032H88.0032H88.0033H88.0033H88.0033H88.0033H88.0033H88.0034H88.0034H88.0034H88.0034H88.0034H88.0035H88.0035H88.0035H88.0035H88.0035H88.0035H88.0036H88.0036H88.0036H88.0036H88.0036H88.0037H88.0037H88.0037H88.0037H88.0037H88.0038H88.0038H88.0038H88.0038H88.0038H88.0038H88.0039H88.0039H88.0039H88.0039H88.0039H88.0039H88.004H88.004H88.004H88.004H88.004H88.004H88.0041H88.0041H88.0041H88.0041H88.0041H88.0041H88.0042H88.0042H88.0042H88.0042H88.0042H88.0042H88.0043H88.0043H88.0043H88.0043H88.0044H88.0044H88.0044H88.0044H88.0045H88.0045H88.0045H88.0046H88.0046H88.0046H88.0046H88.0047H88.0047H88.0047H88.0047H88.0048H88.0048H88.0048H88.0048H88.0048H88.0049H88.0049H88.0049H88.0049H88.005H88.005H88.005H88.005H88.005H88.0051H88.0051H88.0051H88.0051H88.0051H88.0051H88.0052H88.0052H88.0052H88.0052H88.0052H88.0052H88.0053H88.0053H88.0053H88.0053H88.0053H88.0054H88.0054H88.0054H88.0054H88.0054H88.0054H88.0054H88.0055H88.0055H88.0055H88.0055H88.0055C88.2518 29.4998 92.4368 29.4779 96.2703 28.2897C98.1899 27.6948 99.9622 26.8248 101.119 25.5716C102.25 24.3467 102.823 22.7251 102.311 20.5045C102.303 20.4707 102.296 20.4399 102.289 20.4105C102.278 20.3615 102.267 20.3163 102.255 20.2676L102.252 20.255L102.252 20.2549C102.245 20.2203 102.238 20.1911 102.229 20.1569C102.224 20.1348 102.218 20.1106 102.211 20.0816C102.182 19.9579 102.152 19.834 102.121 19.7085L102.121 19.7069L102.113 19.6738C102.066 19.4813 102.018 19.2895 101.969 19.0987C101.79 18.8778 101.595 18.6525 101.384 18.4218C96.1383 12.6871 92.9859 10.3686 91.1714 9.4825L73.5881 21.0175ZM73.5881 21.0175C73.5968 20.9603 73.6065 20.9025 73.6171 20.8433M73.5881 21.0175L73.6171 20.8433M73.6171 20.8433C73.6372 20.7336 73.6611 20.6206 73.6881 20.5038C73.7418 20.2732 73.7964 20.0432 73.8521 19.8119C73.8882 19.6639 73.9237 19.518 73.9602 19.3733L73.9603 19.3727C73.9945 19.2361 74.0284 19.1009 74.0631 18.965L73.6171 20.8433ZM74.1612 18.5861C74.1282 18.7107 74.096 18.8365 74.0632 18.9647L74.1612 18.5861ZM74.1612 18.5861L74.162 18.5836C74.1639 18.5773 74.166 18.5695 74.1683 18.5603M74.1612 18.5861L74.1683 18.5603M74.1683 18.5603C74.2166 18.3764 74.2659 18.1931 74.3166 18.0105C75.1541 17.3751 76.0682 16.6208 76.8438 15.8348C77.6174 15.0507 78.299 14.1902 78.595 13.3505C78.9701 12.2874 79.4127 11.716 79.8298 11.4283C80.2319 11.151 80.6655 11.0991 81.1285 11.1971C81.6058 11.2982 82.1027 11.5581 82.5722 11.8905C83.0377 12.22 83.4496 12.6015 83.7553 12.914L83.7553 12.9141C84.3207 13.4919 85.2101 13.6123 85.9043 13.1814L85.9046 13.1812C86.6376 12.7255 87.6122 11.8726 88.5587 10.2933C89.1089 9.37597 90.239 9.0277 91.1712 9.48242L74.1683 18.5603ZM102.112 19.6662L102.112 19.6666L102.112 19.6662Z" fill="#8589EB" stroke="white"/>
<path opacity="0.15" d="M73.5881 21.0177L73.5874 21.0223C73.2524 23.0963 73.9085 24.6248 75.0904 25.7886C76.2957 26.9754 78.0662 27.7971 79.9542 28.3583C83.7255 29.479 87.7529 29.5 87.9932 29.5H87.9932H87.9933H87.9933H87.9934H87.9934H87.9935H87.9935H87.9936H87.9936H87.9937H87.9937H87.9938H87.9938H87.9939H87.9939H87.994H87.994H87.9941H87.9941H87.9942H87.9942H87.9943H87.9943H87.9944H87.9944H87.9945H87.9945H87.9946H87.9946H87.9946H87.9947H87.9947H87.9948H87.9948H87.9949H87.9949H87.995H87.995H87.9951H87.9951H87.9952H87.9952H87.9952H87.9953H87.9953H87.9954H87.9954H87.9955H87.9955H87.9956H87.9956H87.9957H87.9957H87.9957H87.9958H87.9958H87.9959H87.9959H87.996H87.996H87.996H87.9961H87.9961H87.9962H87.9962H87.9963H87.9963H87.9963H87.9964H87.9964H87.9965H87.9965H87.9966H87.9966H87.9966H87.9967H87.9967H87.9968H87.9968H87.9969H87.9969H87.9969H87.997H87.997H87.9971H87.9971H87.9971H87.9972H87.9972H87.9973H87.9973H87.9973H87.9974H87.9974H87.9975H87.9975H87.9975H87.9976H87.9976H87.9977H87.9977H87.9977H87.9978H87.9978H87.9979H87.9979H87.9979H87.998H87.998H87.9981H87.9981H87.9981H87.9982H87.9982H87.9982H87.9983H87.9983H87.9984H87.9984H87.9984H87.9985H87.9985H87.9985H87.9986H87.9986H87.9987H87.9987H87.9987H87.9988H87.9988H87.9988H87.9989H87.9989H87.9989H87.999H87.999H87.999H87.9991H87.9991H87.9992H87.9992H87.9992H87.9993H87.9993H87.9993H87.9994H87.9994H87.9994H87.9995H87.9995H87.9995H87.9996H87.9996H87.9996H87.9997H87.9997H87.9997H87.9998H87.9998H87.9998H87.9999H87.9999H87.9999H88H88H88H88.0001H88.0001H88.0001H88.0002H88.0002H88.0002H88.0003H88.0003H88.0003H88.0004H88.0004H88.0004H88.0005H88.0005H88.0005H88.0005H88.0006H88.0006H88.0006H88.0007H88.0007H88.0007H88.0008H88.0008H88.0008H88.0009H88.0009H88.0009H88.0009H88.001H88.001H88.001H88.0011H88.0011H88.0011H88.0011H88.0012H88.0012H88.0012H88.0013H88.0013H88.0013H88.0013H88.0014H88.0014H88.0014H88.0015H88.0015H88.0015H88.0015H88.0016H88.0016H88.0016H88.0017H88.0017H88.0017H88.0017H88.0018H88.0018H88.0018H88.0018H88.0019H88.0019H88.0019H88.0019H88.002H88.002H88.002H88.002H88.0021H88.0021H88.0021H88.0021H88.0022H88.0022H88.0022H88.0022H88.0023H88.0023H88.0023H88.0023H88.0024H88.0024H88.0024H88.0024H88.0025H88.0025H88.0025H88.0025H88.0026H88.0026H88.0026H88.0026H88.0027H88.0027H88.0027H88.0027H88.0028H88.0028H88.0028H88.0028H88.0028H88.0029H88.0029H88.0029H88.0029H88.003H88.003H88.003H88.003H88.003H88.0031H88.0031H88.0031H88.0031H88.0031H88.0032H88.0032H88.0032H88.0032H88.0033H88.0033H88.0033H88.0033H88.0033H88.0034H88.0034H88.0034H88.0034H88.0034H88.0035H88.0035H88.0035H88.0035H88.0035H88.0035H88.0036H88.0036H88.0036H88.0036H88.0036H88.0037H88.0037H88.0037H88.0037H88.0037H88.0038H88.0038H88.0038H88.0038H88.0038H88.0038H88.0039H88.0039H88.0039H88.0039H88.0039H88.0039H88.004H88.004H88.004H88.004H88.004H88.004H88.0041H88.0041H88.0041H88.0041H88.0041H88.0041H88.0042H88.0042H88.0042H88.0042H88.0042H88.0042H88.0043H88.0043H88.0043H88.0043H88.0043H88.0043H88.0043H88.0044H88.0044H88.0044H88.0044H88.0044H88.0044H88.0044H88.0045H88.0045H88.0045H88.0045H88.0045H88.0045H88.0045H88.0046H88.0046H88.0046H88.0046H88.0046H88.0046H88.0046H88.0046H88.0047H88.0047H88.0047H88.0047H88.0047H88.0047H88.0047H88.0047H88.0048H88.0048H88.0048H88.0048H88.0048H88.0048H88.0048H88.0048H88.0048H88.0049H88.0049H88.0049H88.0049H88.0049H88.0049H88.0049H88.0049H88.0049H88.005H88.005H88.005H88.005H88.005H88.005H88.005H88.005H88.005H88.005H88.0051H88.0051H88.0051H88.0051H88.0051H88.0051H88.0051H88.0051H88.0051H88.0051H88.0051H88.0051H88.0052H88.0052H88.0052H88.0052H88.0052H88.0052H88.0052H88.0052H88.0052H88.0052H88.0052H88.0053H88.0053H88.0053H88.0053H88.0053H88.0053H88.0053H88.0053H88.0054H88.0054H88.0054H88.0054H88.0054H88.0054H88.0054H88.0054H88.0054H88.0054H88.0054H88.0055H88.0055H88.0055H88.0055H88.0055H88.0055H88.0055H88.0055H88.0055H88.0055C88.2518 29.5 92.4368 29.4781 96.2703 28.2899C98.1899 27.695 99.9622 26.825 101.119 25.5718C102.132 24.4747 102.697 23.0595 102.436 21.1807C102.353 21.2347 102.269 21.2865 102.185 21.3362C102.127 21.3702 102.069 21.4026 102.012 21.4334C102.012 21.4336 102.012 21.4338 102.011 21.434L101.773 20.9945C101.528 21.129 101.274 21.2453 101.014 21.3491L73.5881 21.0177ZM73.5881 21.0177C73.5968 20.9605 73.6065 20.9027 73.6171 20.8435C73.6372 20.7338 73.6611 20.6207 73.6881 20.504C73.7418 20.2734 73.7964 20.0434 73.8521 19.8121C73.8616 19.7732 73.871 19.7345 73.8805 19.6958C74.407 19.6514 74.903 19.8002 75.3041 20.3227L75.3041 20.3227M73.5881 21.0177L75.3041 20.3227M75.3041 20.3227L75.3057 20.3248M75.3041 20.3227L75.3057 20.3248M75.3057 20.3248C75.3691 20.4065 75.4357 20.4914 75.5055 20.5755L75.3057 20.3248Z" fill="white" stroke="white"/>
<path opacity="0.15" d="M73.5881 21.0178L73.5874 21.0225C73.2524 23.0965 73.9085 24.6249 75.0904 25.7887C76.2957 26.9755 78.0662 27.7973 79.9542 28.3584C83.7255 29.4792 87.7529 29.5001 87.9932 29.5001H87.9932H87.9933H87.9933H87.9934H87.9934H87.9935H87.9935H87.9936H87.9936H87.9937H87.9937H87.9938H87.9938H87.9939H87.9939H87.994H87.994H87.9941H87.9941H87.9942H87.9942H87.9943H87.9943H87.9944H87.9944H87.9945H87.9945H87.9946H87.9946H87.9946H87.9947H87.9947H87.9948H87.9948H87.9949H87.9949H87.995H87.995H87.9951H87.9951H87.9952H87.9952H87.9952H87.9953H87.9953H87.9954H87.9954H87.9955H87.9955H87.9956H87.9956H87.9957H87.9957H87.9957H87.9958H87.9958H87.9959H87.9959H87.996H87.996H87.996H87.9961H87.9961H87.9962H87.9962H87.9963H87.9963H87.9963H87.9964H87.9964H87.9965H87.9965H87.9966H87.9966H87.9966H87.9967H87.9967H87.9968H87.9968H87.9969H87.9969H87.9969H87.997H87.997H87.9971H87.9971H87.9971H87.9972H87.9972H87.9973H87.9973H87.9973H87.9974H87.9974H87.9975H87.9975H87.9975H87.9976H87.9976H87.9977H87.9977H87.9977H87.9978H87.9978H87.9979H87.9979H87.9979H87.998H87.998H87.9981H87.9981H87.9981H87.9982H87.9982H87.9982H87.9983H87.9983H87.9984H87.9984H87.9984H87.9985H87.9985H87.9985H87.9986H87.9986H87.9987H87.9987H87.9987H87.9988H87.9988H87.9988H87.9989H87.9989H87.9989H87.999H87.999H87.999H87.9991H87.9991H87.9992H87.9992H87.9992H87.9993H87.9993H87.9993H87.9994H87.9994H87.9994H87.9995H87.9995H87.9995H87.9996H87.9996H87.9996H87.9997H87.9997H87.9997H87.9998H87.9998H87.9998H87.9999H87.9999H87.9999H88H88H88H88.0001H88.0001H88.0001H88.0002H88.0002H88.0002H88.0003H88.0003H88.0003H88.0004H88.0004H88.0004H88.0005H88.0005H88.0005H88.0005H88.0006H88.0006H88.0006H88.0007H88.0007H88.0007H88.0008H88.0008H88.0008H88.0009H88.0009H88.0009H88.0009H88.001H88.001H88.001H88.0011H88.0011H88.0011H88.0011H88.0012H88.0012H88.0012H88.0013H88.0013H88.0013H88.0013H88.0014H88.0014H88.0014H88.0015H88.0015H88.0015H88.0015H88.0016H88.0016H88.0016H88.0017H88.0017H88.0017H88.0017H88.0018H88.0018H88.0018H88.0018H88.0019H88.0019H88.0019H88.0019H88.002H88.002H88.002H88.002H88.0021H88.0021H88.0021H88.0021H88.0022H88.0022H88.0022H88.0022H88.0023H88.0023H88.0023H88.0023H88.0024H88.0024H88.0024H88.0024H88.0025H88.0025H88.0025H88.0025H88.0026H88.0026H88.0026H88.0026H88.0027H88.0027H88.0027H88.0027H88.0028H88.0028H88.0028H88.0028H88.0028H88.0029H88.0029H88.0029H88.0029H88.003H88.003H88.003H88.003H88.003H88.0031H88.0031H88.0031H88.0031H88.0031H88.0032H88.0032H88.0032H88.0032H88.0033H88.0033H88.0033H88.0033H88.0033H88.0034H88.0034H88.0034H88.0034H88.0034H88.0035H88.0035H88.0035H88.0035H88.0035H88.0035H88.0036H88.0036H88.0036H88.0036H88.0036H88.0037H88.0037H88.0037H88.0037H88.0037H88.0038H88.0038H88.0038H88.0038H88.0038H88.0038H88.0039H88.0039H88.0039H88.0039H88.0039H88.0039H88.004H88.004H88.004H88.004H88.004H88.004H88.0041H88.0041H88.0041H88.0041H88.0041H88.0041H88.0042H88.0042H88.0042H88.0042H88.0042H88.0042H88.0043H88.0043H88.0043H88.0043H88.0043H88.0043H88.0043H88.0044H88.0044H88.0044H88.0044H88.0044H88.0044H88.0044H88.0045H88.0045H88.0045H88.0045H88.0045H88.0045H88.0045H88.0046H88.0046H88.0046H88.0046H88.0046H88.0046H88.0046H88.0046H88.0047H88.0047H88.0047H88.0047H88.0047H88.0047H88.0047H88.0047H88.0048H88.0048H88.0048H88.0048H88.0048H88.0048H88.0048H88.0048H88.0048H88.0049H88.0049H88.0049H88.0049H88.0049H88.0049H88.0049H88.0049H88.0049H88.005H88.005H88.005H88.005H88.005H88.005H88.005H88.005H88.005H88.005H88.0051H88.0051H88.0051H88.0051H88.0051H88.0051H88.0051H88.0051H88.0051H88.0051H88.0051H88.0051H88.0052H88.0052H88.0052H88.0052H88.0052H88.0052H88.0052H88.0052H88.0052H88.0052H88.0052H88.0053H88.0053H88.0053H88.0053H88.0053H88.0053H88.0053H88.0053H88.0054H88.0054H88.0054H88.0054H88.0054H88.0054H88.0054H88.0054H88.0054H88.0054H88.0054H88.0055H88.0055H88.0055H88.0055H88.0055H88.0055H88.0055H88.0055H88.0055H88.0055C88.2518 29.5001 92.4368 29.4782 96.2703 28.2901C98.1899 27.6951 99.9622 26.8252 101.119 25.5719C102.176 24.4266 102.746 22.9344 102.397 20.93C102.333 21.0373 102.267 21.1461 102.199 21.2563C102.06 21.4835 101.913 21.718 101.758 21.9553M73.5881 21.0178L79.64 24.3664C81.1708 24.7998 82.9103 23.9542 84.0985 23.025L84.4063 23.419C84.4064 23.4189 84.4064 23.4189 84.4065 23.4188C84.5558 23.3022 84.7036 23.1777 84.843 23.0604C84.8899 23.0209 84.9358 22.9823 84.9805 22.945C85.164 22.7919 85.3371 22.6531 85.5161 22.5323L85.5162 22.5322C86.644 21.7703 87.9321 21.9309 89.2146 22.5942C90.5002 23.2591 91.6823 24.3875 92.461 25.3529L92.8502 25.039M73.5881 21.0178C73.5968 20.9606 73.6065 20.9028 73.6171 20.8436C73.6372 20.7339 73.6611 20.6209 73.6881 20.5042C73.7417 20.2735 73.7964 20.0436 73.8521 19.8123C73.8882 19.6642 73.9237 19.5183 73.9602 19.3736L73.9603 19.373M73.5881 21.0178L73.9603 19.373M101.758 21.9553C100.782 23.4597 99.5244 25.1119 98.1581 26.15C97.4729 26.6706 96.7285 27.0616 95.9518 27.178C95.1572 27.297 94.3634 27.1224 93.6219 26.5733C93.2897 26.3286 92.9748 26.0124 92.6767 25.6264C92.6051 25.5341 92.5331 25.4425 92.4606 25.3524L92.8502 25.039M101.758 21.9553C101.758 21.9555 101.758 21.9557 101.758 21.956L101.339 21.6826L101.759 21.9547C101.758 21.9549 101.758 21.9551 101.758 21.9553ZM92.8502 25.039C91.2388 23.0413 87.9173 20.3066 85.2363 22.1179L101.773 20.9946C101.635 21.2195 101.491 21.4501 101.339 21.6826C99.4031 24.6671 96.4593 28.0533 93.9188 26.1709C93.6303 25.9586 93.3475 25.677 93.0723 25.3206C92.9992 25.2264 92.9252 25.1322 92.8502 25.039ZM73.9603 19.373C73.9945 19.2364 74.0284 19.1012 74.0631 18.9653L73.9603 19.373ZM74.2523 18.2454C74.4371 18.325 74.622 18.4334 74.8055 18.5773L74.0632 18.965C74.096 18.8368 74.1282 18.711 74.1612 18.5864L74.162 18.5839C74.1639 18.5776 74.166 18.5698 74.1683 18.5606C74.196 18.4553 74.2239 18.3502 74.2523 18.2454Z" fill="white" stroke="white"/>
<path opacity="0.15" d="M76.477 20.9876L76.4759 20.9869C76.257 20.8645 76.032 20.7891 75.8045 20.7491C75.0241 20.6137 74.2021 20.9046 73.5535 21.2565C73.303 23.212 73.9534 24.669 75.0904 25.7886C76.2957 26.9753 78.0662 27.7971 79.9542 28.3582C83.7255 29.479 87.7529 29.5 87.9932 29.5H87.9932H87.9933H87.9933H87.9934H87.9934H87.9935H87.9935H87.9936H87.9936H87.9937H87.9937H87.9938H87.9938H87.9939H87.9939H87.994H87.994H87.9941H87.9941H87.9942H87.9942H87.9943H87.9943H87.9944H87.9944H87.9945H87.9945H87.9946H87.9946H87.9946H87.9947H87.9947H87.9948H87.9948H87.9949H87.9949H87.995H87.995H87.9951H87.9951H87.9952H87.9952H87.9952H87.9953H87.9953H87.9954H87.9954H87.9955H87.9955H87.9956H87.9956H87.9957H87.9957H87.9957H87.9958H87.9958H87.9959H87.9959H87.996H87.996H87.996H87.9961H87.9961H87.9962H87.9962H87.9963H87.9963H87.9963H87.9964H87.9964H87.9965H87.9965H87.9966H87.9966H87.9966H87.9967H87.9967H87.9968H87.9968H87.9969H87.9969H87.9969H87.997H87.997H87.9971H87.9971H87.9971H87.9972H87.9972H87.9973H87.9973H87.9973H87.9974H87.9974H87.9975H87.9975H87.9975H87.9976H87.9976H87.9977H87.9977H87.9977H87.9978H87.9978H87.9979H87.9979H87.9979H87.998H87.998H87.9981H87.9981H87.9981H87.9982H87.9982H87.9982H87.9983H87.9983H87.9984H87.9984H87.9984H87.9985H87.9985H87.9985H87.9986H87.9986H87.9987H87.9987H87.9987H87.9988H87.9988H87.9988H87.9989H87.9989H87.9989H87.999H87.999H87.999H87.9991H87.9991H87.9992H87.9992H87.9992H87.9993H87.9993H87.9993H87.9994H87.9994H87.9994H87.9995H87.9995H87.9995H87.9996H87.9996H87.9996H87.9997H87.9997H87.9997H87.9998H87.9998H87.9998H87.9999H87.9999H87.9999H88H88H88H88.0001H88.0001H88.0001H88.0002H88.0002H88.0002H88.0003H88.0003H88.0003H88.0004H88.0004H88.0004H88.0005H88.0005H88.0005H88.0005H88.0006H88.0006H88.0006H88.0007H88.0007H88.0007H88.0008H88.0008H88.0008H88.0009H88.0009H88.0009H88.0009H88.001H88.001H88.001H88.0011H88.0011H88.0011H88.0011H88.0012H88.0012H88.0012H88.0013H88.0013H88.0013H88.0013H88.0014H88.0014H88.0014H88.0015H88.0015H88.0015H88.0015H88.0016H88.0016H88.0016H88.0017H88.0017H88.0017H88.0017H88.0018H88.0018H88.0018H88.0018H88.0019H88.0019H88.0019H88.0019H88.002H88.002H88.002H88.002H88.0021H88.0021H88.0021H88.0021H88.0022H88.0022H88.0022H88.0022H88.0023H88.0023H88.0023H88.0023H88.0024H88.0024H88.0024H88.0024H88.0025H88.0025H88.0025H88.0025H88.0026H88.0026H88.0026H88.0026H88.0027H88.0027H88.0027H88.0027H88.0028H88.0028H88.0028H88.0028H88.0028H88.0029H88.0029H88.0029H88.0029H88.003H88.003H88.003H88.003H88.003H88.0031H88.0031H88.0031H88.0031H88.0031H88.0032H88.0032H88.0032H88.0032H88.0033H88.0033H88.0033H88.0033H88.0033H88.0034H88.0034H88.0034H88.0034H88.0034H88.0035H88.0035H88.0035H88.0035H88.0035H88.0035H88.0036H88.0036H88.0036H88.0036H88.0036H88.0037H88.0037H88.0037H88.0037H88.0037H88.0038H88.0038H88.0038H88.0038H88.0038H88.0038H88.0039H88.0039H88.0039H88.0039H88.0039H88.0039H88.004H88.004H88.004H88.004H88.004H88.004H88.0041H88.0041H88.0041H88.0041H88.0041H88.0041H88.0042H88.0042H88.0042H88.0042H88.0042H88.0042H88.0043H88.0043H88.0043H88.0043H88.0043H88.0043H88.0043H88.0044H88.0044H88.0044H88.0044H88.0044H88.0044H88.0044H88.0045H88.0045H88.0045H88.0045H88.0045H88.0045H88.0045H88.0046H88.0046H88.0046H88.0046H88.0046H88.0046H88.0046H88.0046H88.0047H88.0047H88.0047H88.0047H88.0047H88.0047H88.0047H88.0047H88.0048H88.0048H88.0048H88.0048H88.0048H88.0048H88.0048H88.0048H88.0048H88.0049H88.0049H88.0049H88.0049H88.0049H88.0049H88.0049H88.0049H88.0049H88.005H88.005H88.005H88.005H88.005H88.005H88.005H88.005H88.005H88.005H88.0051H88.0051H88.0051H88.0051H88.0051H88.0051H88.0051H88.0051H88.0051H88.0051H88.0051H88.0051H88.0052H88.0052H88.0052H88.0052H88.0052H88.0052H88.0052H88.0052H88.0052H88.0052H88.0052H88.0053H88.0053H88.0053H88.0053H88.0053H88.0053H88.0053H88.0053H88.0054H88.0054H88.0054H88.0054H88.0054H88.0054H88.0054H88.0054H88.0054H88.0054H88.0054H88.0055H88.0055H88.0055H88.0055H88.0055H88.0055H88.0055H88.0055H88.0055H88.0055C88.2518 29.5 92.4368 29.4781 96.2703 28.2899C98.1899 27.695 99.9622 26.825 101.119 25.5718C102.243 24.3542 102.816 22.7448 102.32 20.5447C102.18 20.6132 102.048 20.7207 101.934 20.8411C101.859 20.9198 101.8 20.995 101.761 21.0497C101.742 21.0768 101.727 21.0983 101.719 21.1117L101.715 21.1168L101.707 21.1342C101.694 21.1583 101.676 21.1929 101.652 21.2368C101.605 21.3246 101.535 21.4499 101.444 21.6042M76.477 20.9876L100.462 23.0321L100.069 22.7231L100.462 23.032C100.903 22.4709 101.233 21.9604 101.444 21.6042M76.477 20.9876C76.8206 21.1786 77.1723 21.4948 77.5017 22.0034L77.5019 22.0036M76.477 20.9876L77.5019 22.0036M101.444 21.6042L101.014 21.3491L101.444 21.604C101.444 21.604 101.444 21.6041 101.444 21.6042ZM77.5019 22.0036C77.6897 22.2931 77.8704 22.6456 78.0375 23.0715C78.2447 23.6031 78.527 24.1175 78.8936 24.5569C79.4809 25.2616 80.2918 25.7777 81.3327 25.836L81.3328 25.836M77.5019 22.0036L81.3328 25.836M81.3328 25.836C82.9141 25.9241 84.3146 25.0837 85.4224 24.3196L81.3328 25.836ZM93.914 26.6708C93.3764 26.6656 92.8168 26.596 92.236 26.4489C91.525 26.269 90.8614 25.9208 90.2499 25.5551C89.9852 25.3968 89.7399 25.2418 89.5021 25.0915C89.1616 24.8764 88.8365 24.6709 88.4919 24.4795C87.9274 24.166 87.4138 23.9538 86.919 23.9032C86.4437 23.8546 85.9557 23.9519 85.4225 24.3195L93.914 26.6708ZM93.914 26.6708C93.9138 26.6708 93.9137 26.6708 93.9136 26.6708L93.9188 26.1708L93.914 26.6708ZM102.698 19.9673L102.437 20.0287L102.436 20.0289L102.375 20.0434L102.372 20.044L102.211 20.0818C102.218 20.1108 102.224 20.135 102.229 20.1572C102.238 20.1913 102.245 20.2205 102.252 20.2551L102.252 20.2552L102.255 20.2678C102.267 20.3165 102.278 20.3617 102.289 20.4108C102.296 20.44 102.303 20.4707 102.311 20.5043C102.311 20.504 102.311 20.5038 102.311 20.5036L102.475 20.4655L102.503 20.4592L102.508 20.4579L102.518 20.4557L102.698 19.9673Z" fill="white" stroke="white"/>
<path opacity="0.15" d="M79.9807 21.6711L79.841 22.1511C80.3053 22.2862 80.8116 22.348 81.3328 22.3769C82.1619 22.4231 82.889 22.1414 83.5274 21.8234C83.7526 21.7111 83.98 21.5873 84.1974 21.4688C84.2847 21.4213 84.3704 21.3746 84.4537 21.3299C84.7532 21.1692 85.037 21.0255 85.3207 20.9144C88.096 19.8287 89.7728 20.1799 91.0457 20.8562C91.6529 21.1789 92.1794 21.581 92.7179 21.9923C92.7672 22.0299 92.8165 22.0677 92.8661 22.1054C93.441 22.5432 94.0502 22.9935 94.741 23.2599C97.1631 24.1941 98.9902 23.9194 100.318 23.1568C100.882 22.833 101.342 22.4295 101.712 22.0162C101.965 21.734 102.176 21.4464 102.351 21.1772L102.352 21.1759C102.375 21.1397 102.398 21.1037 102.42 21.0681C102.72 23.0031 102.152 24.453 101.119 25.5719C99.9622 26.8251 98.1899 27.6951 96.2703 28.29C92.4368 29.4782 88.2518 29.5001 88.0055 29.5001H88.0055H88.0055H88.0055H88.0055H88.0055H88.0055H88.0055H88.0055H88.0055H88.0054H88.0054H88.0054H88.0054H88.0054H88.0054H88.0054H88.0054H88.0054H88.0054H88.0054H88.0053H88.0053H88.0053H88.0053H88.0053H88.0053H88.0053H88.0053H88.0052H88.0052H88.0052H88.0052H88.0052H88.0052H88.0052H88.0052H88.0052H88.0052H88.0052H88.0051H88.0051H88.0051H88.0051H88.0051H88.0051H88.0051H88.0051H88.0051H88.0051H88.0051H88.0051H88.005H88.005H88.005H88.005H88.005H88.005H88.005H88.005H88.005H88.005H88.0049H88.0049H88.0049H88.0049H88.0049H88.0049H88.0049H88.0049H88.0049H88.0048H88.0048H88.0048H88.0048H88.0048H88.0048H88.0048H88.0048H88.0048H88.0047H88.0047H88.0047H88.0047H88.0047H88.0047H88.0047H88.0047H88.0046H88.0046H88.0046H88.0046H88.0046H88.0046H88.0046H88.0046H88.0045H88.0045H88.0045H88.0045H88.0045H88.0045H88.0045H88.0044H88.0044H88.0044H88.0044H88.0044H88.0044H88.0044H88.0043H88.0043H88.0043H88.0043H88.0043H88.0043H88.0043H88.0042H88.0042H88.0042H88.0042H88.0042H88.0042H88.0041H88.0041H88.0041H88.0041H88.0041H88.0041H88.004H88.004H88.004H88.004H88.004H88.004H88.0039H88.0039H88.0039H88.0039H88.0039H88.0039H88.0038H88.0038H88.0038H88.0038H88.0038H88.0038H88.0037H88.0037H88.0037H88.0037H88.0037H88.0036H88.0036H88.0036H88.0036H88.0036H88.0035H88.0035H88.0035H88.0035H88.0035H88.0035H88.0034H88.0034H88.0034H88.0034H88.0034H88.0033H88.0033H88.0033H88.0033H88.0033H88.0032H88.0032H88.0032H88.0032H88.0031H88.0031H88.0031H88.0031H88.0031H88.003H88.003H88.003H88.003H88.003H88.0029H88.0029H88.0029H88.0029H88.0028H88.0028H88.0028H88.0028H88.0028H88.0027H88.0027H88.0027H88.0027H88.0026H88.0026H88.0026H88.0026H88.0025H88.0025H88.0025H88.0025H88.0024H88.0024H88.0024H88.0024H88.0023H88.0023H88.0023H88.0023H88.0022H88.0022H88.0022H88.0022H88.0021H88.0021H88.0021H88.0021H88.002H88.002H88.002H88.002H88.0019H88.0019H88.0019H88.0019H88.0018H88.0018H88.0018H88.0018H88.0017H88.0017H88.0017H88.0017H88.0016H88.0016H88.0016H88.0015H88.0015H88.0015H88.0015H88.0014H88.0014H88.0014H88.0013H88.0013H88.0013H88.0013H88.0012H88.0012H88.0012H88.0011H88.0011H88.0011H88.0011H88.001H88.001H88.001H88.0009H88.0009H88.0009H88.0009H88.0008H88.0008H88.0008H88.0007H88.0007H88.0007H88.0006H88.0006H88.0006H88.0005H88.0005H88.0005H88.0005H88.0004H88.0004H88.0004H88.0003H88.0003H88.0003H88.0002H88.0002H88.0002H88.0001H88.0001H88.0001H88H88H88H87.9999H87.9999H87.9999H87.9998H87.9998H87.9998H87.9997H87.9997H87.9997H87.9996H87.9996H87.9996H87.9995H87.9995H87.9995H87.9994H87.9994H87.9994H87.9993H87.9993H87.9993H87.9992H87.9992H87.9992H87.9991H87.9991H87.999H87.999H87.999H87.9989H87.9989H87.9989H87.9988H87.9988H87.9988H87.9987H87.9987H87.9987H87.9986H87.9986H87.9985H87.9985H87.9985H87.9984H87.9984H87.9984H87.9983H87.9983H87.9982H87.9982H87.9982H87.9981H87.9981H87.9981H87.998H87.998H87.9979H87.9979H87.9979H87.9978H87.9978H87.9977H87.9977H87.9977H87.9976H87.9976H87.9975H87.9975H87.9975H87.9974H87.9974H87.9973H87.9973H87.9973H87.9972H87.9972H87.9971H87.9971H87.9971H87.997H87.997H87.9969H87.9969H87.9969H87.9968H87.9968H87.9967H87.9967H87.9966H87.9966H87.9966H87.9965H87.9965H87.9964H87.9964H87.9963H87.9963H87.9963H87.9962H87.9962H87.9961H87.9961H87.996H87.996H87.996H87.9959H87.9959H87.9958H87.9958H87.9957H87.9957H87.9957H87.9956H87.9956H87.9955H87.9955H87.9954H87.9954H87.9953H87.9953H87.9952H87.9952H87.9952H87.9951H87.9951H87.995H87.995H87.9949H87.9949H87.9948H87.9948H87.9947H87.9947H87.9946H87.9946H87.9946H87.9945H87.9945H87.9944H87.9944H87.9943H87.9943H87.9942H87.9942H87.9941H87.9941H87.994H87.994H87.9939H87.9939H87.9938H87.9938H87.9937H87.9937H87.9936H87.9936H87.9935H87.9935H87.9934H87.9934H87.9933H87.9933H87.9932H87.9932C87.7529 29.5001 83.7255 29.4791 79.9542 28.3583C78.0662 27.7972 76.2957 26.9754 75.0904 25.7887C73.9085 24.6249 73.2524 23.0964 73.5874 21.0224L73.5881 21.0178C73.5968 20.9605 73.6065 20.9028 73.6171 20.8436C73.6372 20.7339 73.6611 20.6209 73.6881 20.5042C73.7417 20.2735 73.7964 20.0435 73.8521 19.8122C73.8882 19.6641 73.9237 19.5182 73.9602 19.3736L73.9603 19.373C73.9945 19.2363 74.0284 19.1011 74.0632 18.965C74.0732 18.9257 74.0833 18.8866 74.0933 18.8476C74.4452 18.7609 74.7985 18.7018 75.1413 18.6832L75.1417 18.6832C75.7337 18.6506 76.2724 18.7391 76.7225 18.9888C77.1645 19.2339 77.5649 19.6585 77.8477 20.3812C78.2372 21.3775 78.9616 21.8966 79.8417 22.1513L79.9807 21.6711ZM79.9807 21.6711C79.2206 21.451 78.636 21.0244 78.3133 20.199L94.9209 22.7934C94.2522 22.5355 93.6526 22.0773 93.0177 21.5921C91.3158 20.2915 89.3603 18.7972 85.1386 20.4488C84.7342 20.607 84.3422 20.8206 83.9496 21.0344C83.1286 21.4817 82.3049 21.9303 81.3606 21.8776C80.8576 21.8498 80.3935 21.7912 79.9807 21.6711ZM102.616 19.6259C102.611 19.6077 102.607 19.5894 102.603 19.5712L102.602 19.5696L102.602 19.5695C102.601 19.5647 102.6 19.56 102.598 19.5552L102.616 19.6259ZM102.616 19.6259L102.578 19.6128M102.616 19.6259L102.578 19.6128M102.578 19.6128L102.616 19.6262C102.644 19.7399 102.671 19.8537 102.698 19.9674M102.578 19.6128C102.551 19.6916 102.502 19.8204 102.429 19.9847L102.497 20.0147L102.698 19.9674M102.698 19.9674L102.497 20.0149L102.734 20.1192C102.728 20.09 102.721 20.061 102.714 20.0319C102.708 20.0105 102.703 19.989 102.698 19.9674Z" fill="white" stroke="white"/>
</g>
<path d="M114.04 21V9.64H116.28L119.864 16.2L123.464 9.64H125.624V21H123.32V13.816L120.68 18.632H118.984L116.344 13.816V21H114.04ZM135.456 21.24C134.827 21.24 134.246 21.128 133.712 20.904C133.179 20.68 132.715 20.3707 132.32 19.976C131.926 19.5707 131.616 19.096 131.392 18.552C131.179 18.008 131.072 17.416 131.072 16.776C131.072 16.136 131.184 15.5493 131.408 15.016C131.632 14.472 131.942 13.9973 132.336 13.592C132.742 13.1867 133.211 12.872 133.744 12.648C134.288 12.424 134.88 12.312 135.52 12.312C136.15 12.312 136.731 12.424 137.264 12.648C137.798 12.872 138.262 13.1867 138.656 13.592C139.051 13.9867 139.355 14.456 139.568 15C139.792 15.5333 139.904 16.12 139.904 16.76C139.904 17.4 139.792 17.992 139.568 18.536C139.344 19.08 139.03 19.5547 138.624 19.96C138.23 20.3653 137.76 20.68 137.216 20.904C136.683 21.128 136.096 21.24 135.456 21.24ZM135.488 19.224C135.894 19.224 136.256 19.1173 136.576 18.904C136.896 18.6907 137.147 18.4027 137.328 18.04C137.52 17.6667 137.616 17.2453 137.616 16.776C137.616 16.3067 137.52 15.8907 137.328 15.528C137.147 15.1547 136.896 14.8613 136.576 14.648C136.256 14.4347 135.894 14.328 135.488 14.328C135.083 14.328 134.72 14.4347 134.4 14.648C134.08 14.8613 133.824 15.1547 133.632 15.528C133.451 15.8907 133.36 16.3067 133.36 16.776C133.36 17.2453 133.451 17.6667 133.632 18.04C133.824 18.4027 134.08 18.6907 134.4 18.904C134.72 19.1173 135.083 19.224 135.488 19.224ZM149.359 21.24C148.729 21.24 148.148 21.128 147.615 20.904C147.081 20.68 146.617 20.3707 146.223 19.976C145.828 19.5707 145.519 19.096 145.295 18.552C145.081 18.008 144.975 17.416 144.975 16.776C144.975 16.136 145.087 15.5493 145.311 15.016C145.535 14.472 145.844 13.9973 146.239 13.592C146.644 13.1867 147.113 12.872 147.647 12.648C148.191 12.424 148.783 12.312 149.423 12.312C150.052 12.312 150.633 12.424 151.167 12.648C151.7 12.872 152.164 13.1867 152.559 13.592C152.953 13.9867 153.257 14.456 153.471 15C153.695 15.5333 153.807 16.12 153.807 16.76C153.807 17.4 153.695 17.992 153.471 18.536C153.247 19.08 152.932 19.5547 152.527 19.96C152.132 20.3653 151.663 20.68 151.119 20.904C150.585 21.128 149.999 21.24 149.359 21.24ZM149.391 19.224C149.796 19.224 150.159 19.1173 150.479 18.904C150.799 18.6907 151.049 18.4027 151.231 18.04C151.423 17.6667 151.519 17.2453 151.519 16.776C151.519 16.3067 151.423 15.8907 151.231 15.528C151.049 15.1547 150.799 14.8613 150.479 14.648C150.159 14.4347 149.796 14.328 149.391 14.328C148.985 14.328 148.623 14.4347 148.303 14.648C147.983 14.8613 147.727 15.1547 147.535 15.528C147.353 15.8907 147.263 16.3067 147.263 16.776C147.263 17.2453 147.353 17.6667 147.535 18.04C147.727 18.4027 147.983 18.6907 148.303 18.904C148.623 19.1173 148.985 19.224 149.391 19.224ZM159.119 21V12.552H161.183L161.247 13.64C161.492 13.2347 161.828 12.9147 162.255 12.68C162.692 12.4347 163.188 12.312 163.743 12.312C164.362 12.312 164.9 12.4613 165.359 12.76C165.828 13.048 166.191 13.464 166.447 14.008C166.703 14.552 166.831 15.192 166.831 15.928V21H164.591V16.216C164.591 15.6293 164.458 15.1707 164.191 14.84C163.924 14.4987 163.556 14.328 163.087 14.328C162.746 14.328 162.447 14.408 162.191 14.568C161.935 14.7173 161.732 14.9307 161.583 15.208C161.434 15.4853 161.359 15.8 161.359 16.152V21H159.119Z" fill="white"/>
<path d="M4.544 21.24C3.86133 21.24 3.232 21.1227 2.656 20.888C2.09067 20.6427 1.60533 20.3013 1.2 19.864C0.805333 19.416 0.533333 18.8827 0.384 18.264L2.608 17.784C2.74667 18.2213 2.98667 18.5627 3.328 18.808C3.68 19.0533 4.096 19.176 4.576 19.176C4.91733 19.176 5.216 19.1173 5.472 19C5.73867 18.872 5.94133 18.7013 6.08 18.488C6.22933 18.2747 6.304 18.0293 6.304 17.752C6.304 17.4 6.17067 17.1173 5.904 16.904C5.63733 16.68 5.20533 16.4987 4.608 16.36L4.096 16.248C2.92267 15.992 2.05867 15.5813 1.504 15.016C0.949333 14.44 0.672 13.7413 0.672 12.92C0.672 12.408 0.773333 11.9387 0.976 11.512C1.17867 11.0853 1.456 10.7173 1.808 10.408C2.17067 10.088 2.592 9.84267 3.072 9.672C3.552 9.49067 4.06933 9.4 4.624 9.4C5.25333 9.4 5.84 9.51733 6.384 9.752C6.928 9.98667 7.38667 10.3227 7.76 10.76C8.13333 11.1973 8.384 11.7147 8.512 12.312L6.32 12.792C6.192 12.3653 5.968 12.04 5.648 11.816C5.33867 11.5813 4.976 11.464 4.56 11.464C4.272 11.464 4.01067 11.5227 3.776 11.64C3.552 11.7467 3.37067 11.9013 3.232 12.104C3.104 12.296 3.04 12.5147 3.04 12.76C3.04 13.1333 3.184 13.4213 3.472 13.624C3.76 13.816 4.18667 13.976 4.752 14.104L5.264 14.216C6.42667 14.472 7.28533 14.8773 7.84 15.432C8.40533 15.9867 8.688 16.696 8.688 17.56C8.688 18.104 8.58133 18.6 8.368 19.048C8.16533 19.496 7.87733 19.8853 7.504 20.216C7.13067 20.5467 6.69333 20.8027 6.192 20.984C5.69067 21.1547 5.14133 21.24 4.544 21.24ZM16.3079 10.264C16.3079 10.5093 16.2492 10.728 16.1319 10.92C16.0252 11.112 15.8705 11.2667 15.6679 11.384C15.4759 11.4907 15.2625 11.544 15.0279 11.544C14.7932 11.544 14.5745 11.4907 14.3719 11.384C14.1799 11.2667 14.0252 11.112 13.9079 10.92C13.8012 10.728 13.7479 10.5093 13.7479 10.264C13.7479 10.0187 13.8012 9.8 13.9079 9.608C14.0252 9.416 14.1799 9.26667 14.3719 9.16C14.5745 9.04267 14.7932 8.984 15.0279 8.984C15.2625 8.984 15.4759 9.04267 15.6679 9.16C15.8705 9.26667 16.0252 9.416 16.1319 9.608C16.2492 9.8 16.3079 10.0187 16.3079 10.264ZM13.9079 21V12.552H16.1479V21H13.9079ZM21.7791 21V9.064H24.0191V21H21.7791ZM33.6504 21.24C33.021 21.24 32.4397 21.1333 31.9064 20.92C31.3837 20.696 30.9304 20.3867 30.5464 19.992C30.1624 19.5867 29.8637 19.112 29.6504 18.568C29.437 18.0133 29.3304 17.4107 29.3304 16.76C29.3304 16.1307 29.437 15.544 29.6504 15C29.8637 14.456 30.157 13.9867 30.5304 13.592C30.9144 13.1867 31.3624 12.872 31.8744 12.648C32.3864 12.424 32.941 12.312 33.5384 12.312C34.157 12.312 34.717 12.4187 35.2184 12.632C35.7304 12.8453 36.1677 13.1493 36.5304 13.544C36.893 13.9387 37.1704 14.408 37.3624 14.952C37.565 15.496 37.6664 16.104 37.6664 16.776V17.336H31.6024C31.6984 17.9653 31.9277 18.4613 32.2904 18.824C32.653 19.176 33.1117 19.352 33.6664 19.352C34.0504 19.352 34.397 19.2613 34.7064 19.08C35.0264 18.8987 35.2877 18.6373 35.4904 18.296L37.4904 18.936C37.2984 19.416 37.0104 19.8267 36.6264 20.168C36.2424 20.5093 35.7944 20.776 35.2824 20.968C34.7704 21.1493 34.2264 21.24 33.6504 21.24ZM33.5384 14.04C33.0477 14.04 32.6317 14.2 32.2904 14.52C31.9597 14.84 31.741 15.2773 31.6344 15.832H35.3624C35.277 15.2773 35.069 14.84 34.7384 14.52C34.4184 14.2 34.0184 14.04 33.5384 14.04ZM42.8966 21V12.552H44.9606L45.0246 13.64C45.27 13.2347 45.606 12.9147 46.0326 12.68C46.47 12.4347 46.966 12.312 47.5206 12.312C48.1393 12.312 48.678 12.4613 49.1366 12.76C49.606 13.048 49.9686 13.464 50.2246 14.008C50.4806 14.552 50.6086 15.192 50.6086 15.928V21H48.3686V16.216C48.3686 15.6293 48.2353 15.1707 47.9686 14.84C47.702 14.4987 47.334 14.328 46.8646 14.328C46.5233 14.328 46.2246 14.408 45.9686 14.568C45.7126 14.7173 45.51 14.9307 45.3606 15.208C45.2113 15.4853 45.1366 15.8 45.1366 16.152V21H42.8966ZM59.6663 21.24C59.0796 21.24 58.5729 21.128 58.1463 20.904C57.7303 20.6693 57.4049 20.3333 57.1703 19.896C56.9463 19.4587 56.8343 18.9253 56.8343 18.296V14.36H55.3943V12.552H56.8343V9.672H59.0743V12.552H61.3783V14.36H59.0743V18.024C59.0743 18.4293 59.1596 18.744 59.3303 18.968C59.5009 19.1813 59.7623 19.288 60.1143 19.288C60.2956 19.288 60.4876 19.2613 60.6903 19.208C60.9036 19.1547 61.1063 19.0853 61.2983 19L61.6983 20.68C61.4209 20.8507 61.1116 20.984 60.7703 21.08C60.4289 21.1867 60.0609 21.24 59.6663 21.24Z" fill="white"/>
</g>
<defs>
<radialGradient id="paint0_radial_1_3481" cx="0" cy="0" r="1" gradientUnits="userSpaceOnUse" gradientTransform="translate(87.9999 14.9998) scale(14.9075 15.0942)">
<stop offset="2.23767e-07" stop-color="#CFCFFA"/>
<stop offset="1" stop-color="#767FF7"/>
</radialGradient>
<clipPath id="clip0_1_3481">
<rect width="30" height="30" fill="white" transform="translate(73)"/>
</clipPath>
</defs>
</svg>
