<svg width="375" height="64" viewBox="0 0 375 64" fill="none" xmlns="http://www.w3.org/2000/svg">
<rect x="0.238892" y="0.466064" width="374" height="63" rx="31.5" fill="#7583CA"/>
<path d="M44.9165 23.9294H47.1134V20.1031C46.7344 20.0509 45.4309 19.9336 43.9128 19.9336C40.7452 19.9336 38.5754 21.926 38.5754 25.5878V28.9579H35.08V33.2355H38.5754V43.9985H42.8609V33.2365H46.215L46.7474 28.9589H42.8599V26.012C42.8609 24.7757 43.1938 23.9294 44.9165 23.9294Z" fill="white"/>
<path d="M102.45 31.148H100.7C100.364 29.8227 99.5338 29.16 98.2084 29.16C97.2098 29.16 96.4351 29.5567 95.8844 30.35C95.4084 31.0407 95.1704 31.9134 95.1704 32.968C95.1704 34.0227 95.4084 34.8954 95.8844 35.586C96.4351 36.3794 97.2098 36.776 98.2084 36.776C98.9551 36.776 99.5571 36.5194 100.014 36.006C100.434 35.5394 100.682 34.9234 100.756 34.158H102.464C102.39 35.362 101.96 36.3374 101.176 37.084C100.402 37.8307 99.4124 38.204 98.2084 38.204C96.7524 38.204 95.5811 37.686 94.6944 36.65C93.8451 35.67 93.4204 34.4427 93.4204 32.968C93.4204 31.484 93.8451 30.252 94.6944 29.272C95.5811 28.2454 96.7524 27.732 98.2084 27.732C99.3564 27.732 100.318 28.0307 101.092 28.628C101.895 29.2534 102.348 30.0934 102.45 31.148ZM109.012 27.732C110.468 27.732 111.639 28.2454 112.526 29.272C113.375 30.2614 113.8 31.4934 113.8 32.968C113.8 34.4427 113.375 35.67 112.526 36.65C111.639 37.686 110.468 38.204 109.012 38.204C107.556 38.204 106.385 37.686 105.498 36.65C104.649 35.67 104.224 34.4427 104.224 32.968C104.224 31.4934 104.649 30.2614 105.498 29.272C106.385 28.2454 107.556 27.732 109.012 27.732ZM109.012 29.16C108.013 29.16 107.239 29.5567 106.688 30.35C106.212 31.0407 105.974 31.9134 105.974 32.968C105.974 34.0227 106.212 34.8954 106.688 35.586C107.239 36.3794 108.013 36.776 109.012 36.776C110.011 36.776 110.785 36.3794 111.336 35.586C111.812 34.8954 112.05 34.0227 112.05 32.968C112.05 31.9134 111.812 31.0407 111.336 30.35C110.785 29.5567 110.011 29.16 109.012 29.16ZM116.023 37.966V27.97H117.871L122.435 35.334H122.463V27.97H124.129V37.966H122.281L117.731 30.616H117.689V37.966H116.023ZM125.944 29.482V27.97H134.036V29.482H130.858V37.966H129.108V29.482H125.944ZM135.895 37.966V27.97H137.645V37.966H135.895ZM140.421 37.966V27.97H142.269L146.833 35.334H146.861V27.97H148.527V37.966H146.679L142.129 30.616H142.087V37.966H140.421ZM151.183 34.368V27.97H152.933V33.794C152.933 34.6994 153.04 35.348 153.255 35.74C153.6 36.3747 154.277 36.692 155.285 36.692C156.293 36.692 156.97 36.3747 157.315 35.74C157.53 35.348 157.637 34.6994 157.637 33.794V27.97H159.387V34.368C159.387 35.6187 159.014 36.58 158.267 37.252C157.548 37.8867 156.554 38.204 155.285 38.204C154.016 38.204 153.026 37.8867 152.317 37.252C151.561 36.58 151.183 35.6187 151.183 34.368ZM162.099 37.966V27.97H169.295V29.482H163.849V32.1H168.889V33.528H163.849V36.454H169.393V37.966H162.099ZM177.865 37.966L175.233 27.97H177.011L178.817 35.614H178.845L180.861 27.97H182.653L184.613 35.614H184.641L186.503 27.97H188.281L185.523 37.966H183.745L181.743 30.322H181.715L179.671 37.966H177.865ZM190.134 37.966V27.97H191.884V37.966H190.134ZM193.779 29.482V27.97H201.871V29.482H198.693V37.966H196.943V29.482H193.779ZM203.687 37.966V27.97H205.437V31.946H209.987V27.97H211.737V37.966H209.987V33.458H205.437V37.966H203.687ZM219.129 37.966V27.97H226.031V29.482H220.879V32.1H225.401V33.528H220.879V37.966H219.129ZM231.698 29.692L230.186 33.99H233.238L231.74 29.692H231.698ZM226.966 37.966L230.802 27.97H232.664L236.514 37.966H234.638L233.7 35.32H229.71L228.772 37.966H226.966ZM246.664 31.148H244.914C244.578 29.8227 243.747 29.16 242.422 29.16C241.423 29.16 240.649 29.5567 240.098 30.35C239.622 31.0407 239.384 31.9134 239.384 32.968C239.384 34.0227 239.622 34.8954 240.098 35.586C240.649 36.3794 241.423 36.776 242.422 36.776C243.169 36.776 243.771 36.5194 244.228 36.006C244.648 35.5394 244.895 34.9234 244.97 34.158H246.678C246.603 35.362 246.174 36.3374 245.39 37.084C244.615 37.8307 243.626 38.204 242.422 38.204C240.966 38.204 239.795 37.686 238.908 36.65C238.059 35.67 237.634 34.4427 237.634 32.968C237.634 31.484 238.059 30.252 238.908 29.272C239.795 28.2454 240.966 27.732 242.422 27.732C243.57 27.732 244.531 28.0307 245.306 28.628C246.109 29.2534 246.561 30.0934 246.664 31.148ZM248.97 37.966V27.97H256.166V29.482H250.72V32.1H255.76V33.528H250.72V36.454H256.264V37.966H248.97ZM260.238 33.416V36.538H263.332C264.452 36.538 265.012 36.0107 265.012 34.956C265.012 33.9294 264.452 33.416 263.332 33.416H260.238ZM258.488 37.966V27.97H263.346C264.27 27.97 264.993 28.18 265.516 28.6C266.048 29.02 266.314 29.636 266.314 30.448C266.314 31.456 265.838 32.1654 264.886 32.576V32.604C266.137 32.8747 266.762 33.7334 266.762 35.18C266.762 36.0107 266.473 36.6687 265.894 37.154C265.25 37.6954 264.312 37.966 263.08 37.966H258.488ZM260.238 29.398V32.156H263.094C263.523 32.156 263.873 32.0347 264.144 31.792C264.424 31.5494 264.564 31.2087 264.564 30.77C264.564 29.8554 264.074 29.398 263.094 29.398H260.238ZM273.301 27.732C274.757 27.732 275.929 28.2454 276.815 29.272C277.665 30.2614 278.089 31.4934 278.089 32.968C278.089 34.4427 277.665 35.67 276.815 36.65C275.929 37.686 274.757 38.204 273.301 38.204C271.845 38.204 270.674 37.686 269.787 36.65C268.938 35.67 268.513 34.4427 268.513 32.968C268.513 31.4934 268.938 30.2614 269.787 29.272C270.674 28.2454 271.845 27.732 273.301 27.732ZM273.301 29.16C272.303 29.16 271.528 29.5567 270.977 30.35C270.501 31.0407 270.263 31.9134 270.263 32.968C270.263 34.0227 270.501 34.8954 270.977 35.586C271.528 36.3794 272.303 36.776 273.301 36.776C274.3 36.776 275.075 36.3794 275.625 35.586C276.101 34.8954 276.339 34.0227 276.339 32.968C276.339 31.9134 276.101 31.0407 275.625 30.35C275.075 29.5567 274.3 29.16 273.301 29.16ZM284.638 27.732C286.094 27.732 287.265 28.2454 288.152 29.272C289.001 30.2614 289.426 31.4934 289.426 32.968C289.426 34.4427 289.001 35.67 288.152 36.65C287.265 37.686 286.094 38.204 284.638 38.204C283.182 38.204 282.011 37.686 281.124 36.65C280.275 35.67 279.85 34.4427 279.85 32.968C279.85 31.4934 280.275 30.2614 281.124 29.272C282.011 28.2454 283.182 27.732 284.638 27.732ZM284.638 29.16C283.639 29.16 282.865 29.5567 282.314 30.35C281.838 31.0407 281.6 31.9134 281.6 32.968C281.6 34.0227 281.838 34.8954 282.314 35.586C282.865 36.3794 283.639 36.776 284.638 36.776C285.637 36.776 286.411 36.3794 286.962 35.586C287.438 34.8954 287.676 34.0227 287.676 32.968C287.676 31.9134 287.438 31.0407 286.962 30.35C286.411 29.5567 285.637 29.16 284.638 29.16ZM291.719 37.966V27.97H293.469V32.52L297.921 27.97H300.077L296.087 31.96L300.357 37.966H298.173L294.897 33.192L293.469 34.606V37.966H291.719Z" fill="#F6F1FB"/>
</svg>
