<svg width="375" height="64" viewBox="0 0 375 64" fill="none" xmlns="http://www.w3.org/2000/svg">
<rect x="0.738892" y="0.966064" width="373" height="62" rx="31" stroke="#EBEAEC"/>
<path d="M102.45 31.1481H100.7C100.364 29.8227 99.5338 29.1601 98.2084 29.1601C97.2098 29.1601 96.4351 29.5567 95.8844 30.3501C95.4084 31.0407 95.1704 31.9134 95.1704 32.9681C95.1704 34.0227 95.4084 34.8954 95.8844 35.5861C96.4351 36.3794 97.2098 36.7761 98.2084 36.7761C98.9551 36.7761 99.5571 36.5194 100.014 36.0061C100.434 35.5394 100.682 34.9234 100.756 34.1581H102.464C102.39 35.3621 101.96 36.3374 101.176 37.0841C100.402 37.8307 99.4124 38.2041 98.2084 38.2041C96.7524 38.2041 95.5811 37.6861 94.6944 36.6501C93.8451 35.6701 93.4204 34.4427 93.4204 32.9681C93.4204 31.4841 93.8451 30.2521 94.6944 29.2721C95.5811 28.2454 96.7524 27.7321 98.2084 27.7321C99.3564 27.7321 100.318 28.0307 101.092 28.6281C101.895 29.2534 102.348 30.0934 102.45 31.1481ZM109.012 27.7321C110.468 27.7321 111.639 28.2454 112.526 29.2721C113.375 30.2614 113.8 31.4934 113.8 32.9681C113.8 34.4427 113.375 35.6701 112.526 36.6501C111.639 37.6861 110.468 38.2041 109.012 38.2041C107.556 38.2041 106.385 37.6861 105.498 36.6501C104.649 35.6701 104.224 34.4427 104.224 32.9681C104.224 31.4934 104.649 30.2614 105.498 29.2721C106.385 28.2454 107.556 27.7321 109.012 27.7321ZM109.012 29.1601C108.013 29.1601 107.239 29.5567 106.688 30.3501C106.212 31.0407 105.974 31.9134 105.974 32.9681C105.974 34.0227 106.212 34.8954 106.688 35.5861C107.239 36.3794 108.013 36.7761 109.012 36.7761C110.011 36.7761 110.785 36.3794 111.336 35.5861C111.812 34.8954 112.05 34.0227 112.05 32.9681C112.05 31.9134 111.812 31.0407 111.336 30.3501C110.785 29.5567 110.011 29.1601 109.012 29.1601ZM116.023 37.9661V27.9701H117.871L122.435 35.3341H122.463V27.9701H124.129V37.9661H122.281L117.731 30.6161H117.689V37.9661H116.023ZM125.944 29.4821V27.9701H134.036V29.4821H130.858V37.9661H129.108V29.4821H125.944ZM135.895 37.9661V27.9701H137.645V37.9661H135.895ZM140.421 37.9661V27.9701H142.269L146.833 35.3341H146.861V27.9701H148.527V37.9661H146.679L142.129 30.6161H142.087V37.9661H140.421ZM151.183 34.3681V27.9701H152.933V33.7941C152.933 34.6994 153.04 35.3481 153.255 35.7401C153.6 36.3747 154.277 36.6921 155.285 36.6921C156.293 36.6921 156.97 36.3747 157.315 35.7401C157.53 35.3481 157.637 34.6994 157.637 33.7941V27.9701H159.387V34.3681C159.387 35.6187 159.014 36.5801 158.267 37.2521C157.548 37.8867 156.554 38.2041 155.285 38.2041C154.016 38.2041 153.026 37.8867 152.317 37.2521C151.561 36.5801 151.183 35.6187 151.183 34.3681ZM162.099 37.9661V27.9701H169.295V29.4821H163.849V32.1001H168.889V33.5281H163.849V36.4541H169.393V37.9661H162.099ZM177.865 37.9661L175.233 27.9701H177.011L178.817 35.6141H178.845L180.861 27.9701H182.653L184.613 35.6141H184.641L186.503 27.9701H188.281L185.523 37.9661H183.745L181.743 30.3221H181.715L179.671 37.9661H177.865ZM190.134 37.9661V27.9701H191.884V37.9661H190.134ZM193.779 29.4821V27.9701H201.871V29.4821H198.693V37.9661H196.943V29.4821H193.779ZM203.687 37.9661V27.9701H205.437V31.9461H209.987V27.9701H211.737V37.9661H209.987V33.4581H205.437V37.9661H203.687ZM227.851 32.7021V37.9661H226.731L226.465 36.7901C226.008 37.3127 225.546 37.6814 225.079 37.8961C224.622 38.1014 224.081 38.2041 223.455 38.2041C221.999 38.2041 220.828 37.6861 219.941 36.6501C219.092 35.6701 218.667 34.4427 218.667 32.9681C218.667 31.4934 219.092 30.2614 219.941 29.2721C220.828 28.2454 221.999 27.7321 223.455 27.7321C224.594 27.7321 225.546 28.0214 226.311 28.6001C227.133 29.2067 227.609 30.0561 227.739 31.1481H226.031C225.947 30.5134 225.653 30.0187 225.149 29.6641C224.683 29.3281 224.118 29.1601 223.455 29.1601C222.457 29.1601 221.682 29.5567 221.131 30.3501C220.655 31.0407 220.417 31.9134 220.417 32.9681C220.417 34.0227 220.655 34.8954 221.131 35.5861C221.673 36.3701 222.447 36.7667 223.455 36.7761C224.342 36.7854 225.023 36.5474 225.499 36.0621C225.985 35.5674 226.237 34.8907 226.255 34.0321H223.595V32.7021H227.851ZM234.708 27.7321C236.164 27.7321 237.336 28.2454 238.222 29.2721C239.072 30.2614 239.496 31.4934 239.496 32.9681C239.496 34.4427 239.072 35.6701 238.222 36.6501C237.336 37.6861 236.164 38.2041 234.708 38.2041C233.252 38.2041 232.081 37.6861 231.194 36.6501C230.345 35.6701 229.92 34.4427 229.92 32.9681C229.92 31.4934 230.345 30.2614 231.194 29.2721C232.081 28.2454 233.252 27.7321 234.708 27.7321ZM234.708 29.1601C233.71 29.1601 232.935 29.5567 232.384 30.3501C231.908 31.0407 231.67 31.9134 231.67 32.9681C231.67 34.0227 231.908 34.8954 232.384 35.5861C232.935 36.3794 233.71 36.7761 234.708 36.7761C235.707 36.7761 236.482 36.3794 237.032 35.5861C237.508 34.8954 237.746 34.0227 237.746 32.9681C237.746 31.9134 237.508 31.0407 237.032 30.3501C236.482 29.5567 235.707 29.1601 234.708 29.1601ZM246.045 27.7321C247.501 27.7321 248.672 28.2454 249.559 29.2721C250.408 30.2614 250.833 31.4934 250.833 32.9681C250.833 34.4427 250.408 35.6701 249.559 36.6501C248.672 37.6861 247.501 38.2041 246.045 38.2041C244.589 38.2041 243.418 37.6861 242.531 36.6501C241.682 35.6701 241.257 34.4427 241.257 32.9681C241.257 31.4934 241.682 30.2614 242.531 29.2721C243.418 28.2454 244.589 27.7321 246.045 27.7321ZM246.045 29.1601C245.046 29.1601 244.272 29.5567 243.721 30.3501C243.245 31.0407 243.007 31.9134 243.007 32.9681C243.007 34.0227 243.245 34.8954 243.721 35.5861C244.272 36.3794 245.046 36.7761 246.045 36.7761C247.044 36.7761 247.818 36.3794 248.369 35.5861C248.845 34.8954 249.083 34.0227 249.083 32.9681C249.083 31.9134 248.845 31.0407 248.369 30.3501C247.818 29.5567 247.044 29.1601 246.045 29.1601ZM261.848 32.7021V37.9661H260.728L260.462 36.7901C260.005 37.3127 259.543 37.6814 259.076 37.8961C258.619 38.1014 258.077 38.2041 257.452 38.2041C255.996 38.2041 254.825 37.6861 253.938 36.6501C253.089 35.6701 252.664 34.4427 252.664 32.9681C252.664 31.4934 253.089 30.2614 253.938 29.2721C254.825 28.2454 255.996 27.7321 257.452 27.7321C258.591 27.7321 259.543 28.0214 260.308 28.6001C261.129 29.2067 261.605 30.0561 261.736 31.1481H260.028C259.944 30.5134 259.65 30.0187 259.146 29.6641C258.679 29.3281 258.115 29.1601 257.452 29.1601C256.453 29.1601 255.679 29.5567 255.128 30.3501C254.652 31.0407 254.414 31.9134 254.414 32.9681C254.414 34.0227 254.652 34.8954 255.128 35.5861C255.669 36.3701 256.444 36.7667 257.452 36.7761C258.339 36.7854 259.02 36.5474 259.496 36.0621C259.981 35.5674 260.233 34.8907 260.252 34.0321H257.592V32.7021H261.848ZM264.449 37.9661V27.9701H266.199V36.4541H271.281V37.9661H264.449ZM273.188 37.9661V27.9701H280.384V29.4821H274.938V32.1001H279.978V33.5281H274.938V36.4541H280.482V37.9661H273.188Z" fill="#3F414E"/>
<path d="M52.8886 32.2334C52.8886 31.2441 52.8083 30.5221 52.6346 29.7734H41.3374V34.2388H47.9686C47.8349 35.3485 47.113 37.0196 45.5086 38.1426L45.4861 38.2921L49.0581 41.0592L49.3056 41.0839C51.5783 38.9849 52.8886 35.8966 52.8886 32.2334Z" fill="#4285F4"/>
<path d="M41.3374 43.9984C44.5861 43.9984 47.3135 42.9288 49.3056 41.0839L45.5086 38.1426C44.4926 38.8511 43.1289 39.3458 41.3374 39.3458C38.1555 39.3458 35.4549 37.2469 34.4922 34.3457L34.3511 34.3577L30.637 37.2321L30.5884 37.3672C32.567 41.2977 36.6313 43.9984 41.3374 43.9984Z" fill="#34A853"/>
<path d="M34.4922 34.3457C34.2382 33.5971 34.0912 32.7948 34.0912 31.966C34.0912 31.137 34.2382 30.3349 34.4788 29.5862L34.4721 29.4268L30.7114 26.5062L30.5884 26.5647C29.7729 28.1958 29.3049 30.0274 29.3049 31.966C29.3049 33.9045 29.7729 35.7361 30.5884 37.3672L34.4922 34.3457Z" fill="#FBBC05"/>
<path d="M41.3378 24.5861C43.5972 24.5861 45.1212 25.5621 45.9903 26.3777L49.3861 23.062C47.3005 21.1235 44.5865 19.9336 41.3378 19.9336C36.6317 19.9336 32.5674 22.6342 30.5887 26.5648L34.4792 29.5863C35.4553 26.6851 38.1559 24.5861 41.3378 24.5861Z" fill="#EB4335"/>
</svg>
